<mxfile host="app.diagrams.net" modified="2023-11-24T17:53:17.472Z" agent="Mozilla/5.0 (Windows NT 10.0; Win64; x64) AppleWebKit/537.36 (KHTML, like Gecko) Chrome/109.0.0.0 Safari/537.36" etag="mffBW9G9_ceeMs-MBFvO" version="22.1.3" type="device">
  <diagram name="Page-1" id="mp44M3LD3xbOiAUhGBmc">
    <mxGraphModel dx="2331" dy="1838" grid="1" gridSize="10" guides="1" tooltips="1" connect="1" arrows="1" fold="1" page="1" pageScale="1" pageWidth="850" pageHeight="1100" math="0" shadow="0">
      <root>
        <mxCell id="0" />
        <mxCell id="1" parent="0" />
        <mxCell id="go7EdPzXV1L_zmfhicrD-1" value="" style="endArrow=none;html=1;rounded=0;" parent="1" edge="1">
          <mxGeometry width="50" height="50" relative="1" as="geometry">
            <mxPoint x="140" y="30" as="sourcePoint" />
            <mxPoint x="100" y="-60" as="targetPoint" />
          </mxGeometry>
        </mxCell>
        <mxCell id="go7EdPzXV1L_zmfhicrD-2" value="" style="endArrow=none;html=1;rounded=0;" parent="1" edge="1">
          <mxGeometry width="50" height="50" relative="1" as="geometry">
            <mxPoint x="100" y="-60" as="sourcePoint" />
            <mxPoint x="160" y="-60" as="targetPoint" />
          </mxGeometry>
        </mxCell>
        <mxCell id="go7EdPzXV1L_zmfhicrD-3" value="" style="endArrow=none;html=1;rounded=0;" parent="1" edge="1">
          <mxGeometry width="50" height="50" relative="1" as="geometry">
            <mxPoint x="160" y="-60" as="sourcePoint" />
            <mxPoint x="180" y="-30" as="targetPoint" />
          </mxGeometry>
        </mxCell>
        <mxCell id="go7EdPzXV1L_zmfhicrD-5" value="" style="endArrow=none;html=1;rounded=0;" parent="1" edge="1">
          <mxGeometry width="50" height="50" relative="1" as="geometry">
            <mxPoint x="260" y="-60" as="sourcePoint" />
            <mxPoint x="220" y="30" as="targetPoint" />
          </mxGeometry>
        </mxCell>
        <mxCell id="go7EdPzXV1L_zmfhicrD-6" value="" style="endArrow=none;html=1;rounded=0;" parent="1" edge="1">
          <mxGeometry width="50" height="50" relative="1" as="geometry">
            <mxPoint x="200" y="-60" as="sourcePoint" />
            <mxPoint x="260" y="-60" as="targetPoint" />
          </mxGeometry>
        </mxCell>
        <mxCell id="go7EdPzXV1L_zmfhicrD-7" value="" style="endArrow=none;html=1;rounded=0;" parent="1" edge="1">
          <mxGeometry width="50" height="50" relative="1" as="geometry">
            <mxPoint x="180" y="-30" as="sourcePoint" />
            <mxPoint x="200" y="-60" as="targetPoint" />
          </mxGeometry>
        </mxCell>
        <mxCell id="go7EdPzXV1L_zmfhicrD-8" value="" style="endArrow=none;html=1;rounded=0;" parent="1" edge="1">
          <mxGeometry width="50" height="50" relative="1" as="geometry">
            <mxPoint x="140" y="30" as="sourcePoint" />
            <mxPoint x="220" y="30" as="targetPoint" />
          </mxGeometry>
        </mxCell>
        <mxCell id="go7EdPzXV1L_zmfhicrD-9" value="ALU" style="text;html=1;strokeColor=none;fillColor=none;align=center;verticalAlign=middle;whiteSpace=wrap;rounded=0;fontSize=16;" parent="1" vertex="1">
          <mxGeometry x="150" y="-20" width="60" height="30" as="geometry" />
        </mxCell>
        <mxCell id="go7EdPzXV1L_zmfhicrD-10" value="" style="rounded=0;whiteSpace=wrap;html=1;fillColor=#FF3333;fillStyle=solid;" parent="1" vertex="1">
          <mxGeometry x="100" y="-150" width="160" height="30" as="geometry" />
        </mxCell>
        <mxCell id="go7EdPzXV1L_zmfhicrD-11" value="" style="rounded=0;whiteSpace=wrap;html=1;fillStyle=solid;fillColor=#33FFFF;" parent="1" vertex="1">
          <mxGeometry x="100" y="-180" width="160" height="30" as="geometry" />
        </mxCell>
        <mxCell id="go7EdPzXV1L_zmfhicrD-12" value="" style="endArrow=classic;html=1;rounded=0;" parent="1" edge="1">
          <mxGeometry width="50" height="50" relative="1" as="geometry">
            <mxPoint x="130" y="-150" as="sourcePoint" />
            <mxPoint x="130" y="-60" as="targetPoint" />
          </mxGeometry>
        </mxCell>
        <mxCell id="go7EdPzXV1L_zmfhicrD-13" value="" style="endArrow=classic;html=1;rounded=0;exitX=0.786;exitY=0.984;exitDx=0;exitDy=0;exitPerimeter=0;" parent="1" source="go7EdPzXV1L_zmfhicrD-10" edge="1">
          <mxGeometry width="50" height="50" relative="1" as="geometry">
            <mxPoint x="310" y="-20" as="sourcePoint" />
            <mxPoint x="226" y="-60" as="targetPoint" />
          </mxGeometry>
        </mxCell>
        <mxCell id="go7EdPzXV1L_zmfhicrD-14" value="" style="endArrow=classic;html=1;rounded=0;entryX=0;entryY=0.5;entryDx=0;entryDy=0;" parent="1" target="go7EdPzXV1L_zmfhicrD-10" edge="1">
          <mxGeometry width="50" height="50" relative="1" as="geometry">
            <mxPoint x="180" y="30" as="sourcePoint" />
            <mxPoint x="60" y="-160" as="targetPoint" />
            <Array as="points">
              <mxPoint x="180" y="70" />
              <mxPoint x="60" y="70" />
              <mxPoint x="60" y="-135" />
            </Array>
          </mxGeometry>
        </mxCell>
        <mxCell id="go7EdPzXV1L_zmfhicrD-15" value="" style="endArrow=classic;html=1;rounded=0;entryX=0;entryY=0.5;entryDx=0;entryDy=0;" parent="1" target="go7EdPzXV1L_zmfhicrD-11" edge="1">
          <mxGeometry width="50" height="50" relative="1" as="geometry">
            <mxPoint x="30" y="-165" as="sourcePoint" />
            <mxPoint x="70" y="-190" as="targetPoint" />
          </mxGeometry>
        </mxCell>
        <mxCell id="go7EdPzXV1L_zmfhicrD-16" value="SP" style="text;html=1;strokeColor=none;fillColor=none;align=center;verticalAlign=middle;whiteSpace=wrap;rounded=0;fontSize=16;" parent="1" vertex="1">
          <mxGeometry x="30" y="-200" width="60" height="30" as="geometry" />
        </mxCell>
        <mxCell id="go7EdPzXV1L_zmfhicrD-17" value="" style="rounded=1;whiteSpace=wrap;html=1;fillColor=none;dashed=1;dashPattern=1 2;shadow=0;strokeWidth=2;" parent="1" vertex="1">
          <mxGeometry x="10" y="-220" width="280" height="360" as="geometry" />
        </mxCell>
        <mxCell id="go7EdPzXV1L_zmfhicrD-19" value="" style="rounded=1;whiteSpace=wrap;html=1;fillColor=none;dashed=1;dashPattern=1 2;shadow=0;strokeWidth=2;" parent="1" vertex="1">
          <mxGeometry x="10" y="180" width="280" height="300" as="geometry" />
        </mxCell>
        <mxCell id="go7EdPzXV1L_zmfhicrD-21" value="" style="rounded=0;whiteSpace=wrap;html=1;" parent="1" vertex="1">
          <mxGeometry x="75" y="220" width="160" height="30" as="geometry" />
        </mxCell>
        <mxCell id="go7EdPzXV1L_zmfhicrD-22" value="" style="rounded=0;whiteSpace=wrap;html=1;" parent="1" vertex="1">
          <mxGeometry x="75" y="250" width="160" height="30" as="geometry" />
        </mxCell>
        <mxCell id="go7EdPzXV1L_zmfhicrD-23" value="" style="rounded=0;whiteSpace=wrap;html=1;" parent="1" vertex="1">
          <mxGeometry x="75" y="280" width="160" height="30" as="geometry" />
        </mxCell>
        <mxCell id="go7EdPzXV1L_zmfhicrD-24" value="" style="rounded=0;whiteSpace=wrap;html=1;" parent="1" vertex="1">
          <mxGeometry x="75" y="310" width="160" height="30" as="geometry" />
        </mxCell>
        <mxCell id="go7EdPzXV1L_zmfhicrD-25" value="" style="rounded=0;whiteSpace=wrap;html=1;" parent="1" vertex="1">
          <mxGeometry x="75" y="410" width="160" height="30" as="geometry" />
        </mxCell>
        <mxCell id="go7EdPzXV1L_zmfhicrD-30" value="" style="endArrow=none;dashed=1;html=1;rounded=0;entryX=0;entryY=1;entryDx=0;entryDy=0;exitX=0;exitY=0;exitDx=0;exitDy=0;" parent="1" source="go7EdPzXV1L_zmfhicrD-25" target="go7EdPzXV1L_zmfhicrD-24" edge="1">
          <mxGeometry width="50" height="50" relative="1" as="geometry">
            <mxPoint x="190" y="390" as="sourcePoint" />
            <mxPoint x="100" y="364.2857142857142" as="targetPoint" />
          </mxGeometry>
        </mxCell>
        <mxCell id="go7EdPzXV1L_zmfhicrD-31" value="" style="endArrow=none;dashed=1;html=1;rounded=0;entryX=1;entryY=1;entryDx=0;entryDy=0;exitX=1;exitY=0;exitDx=0;exitDy=0;" parent="1" source="go7EdPzXV1L_zmfhicrD-25" target="go7EdPzXV1L_zmfhicrD-24" edge="1">
          <mxGeometry width="50" height="50" relative="1" as="geometry">
            <mxPoint x="400" y="390" as="sourcePoint" />
            <mxPoint x="450" y="340" as="targetPoint" />
          </mxGeometry>
        </mxCell>
        <mxCell id="go7EdPzXV1L_zmfhicrD-32" value="Processor" style="text;html=1;strokeColor=none;fillColor=none;align=center;verticalAlign=middle;whiteSpace=wrap;rounded=0;fontSize=18;" parent="1" vertex="1">
          <mxGeometry x="-80" y="-230" width="100" height="30" as="geometry" />
        </mxCell>
        <mxCell id="go7EdPzXV1L_zmfhicrD-33" value="Memory" style="text;html=1;strokeColor=none;fillColor=none;align=center;verticalAlign=middle;whiteSpace=wrap;rounded=0;fontSize=18;" parent="1" vertex="1">
          <mxGeometry x="-80" y="190" width="100" height="30" as="geometry" />
        </mxCell>
        <mxCell id="go7EdPzXV1L_zmfhicrD-34" value="Stack" style="text;html=1;strokeColor=none;fillColor=none;align=center;verticalAlign=middle;whiteSpace=wrap;rounded=0;fontSize=22;" parent="1" vertex="1">
          <mxGeometry x="125" y="-280" width="60" height="30" as="geometry" />
        </mxCell>
        <mxCell id="go7EdPzXV1L_zmfhicrD-35" value="" style="endArrow=none;html=1;rounded=0;" parent="1" edge="1">
          <mxGeometry width="50" height="50" relative="1" as="geometry">
            <mxPoint x="450" y="50" as="sourcePoint" />
            <mxPoint x="410" y="-40" as="targetPoint" />
          </mxGeometry>
        </mxCell>
        <mxCell id="go7EdPzXV1L_zmfhicrD-36" value="" style="endArrow=none;html=1;rounded=0;" parent="1" edge="1">
          <mxGeometry width="50" height="50" relative="1" as="geometry">
            <mxPoint x="410" y="-40" as="sourcePoint" />
            <mxPoint x="470" y="-40" as="targetPoint" />
          </mxGeometry>
        </mxCell>
        <mxCell id="go7EdPzXV1L_zmfhicrD-37" value="" style="endArrow=none;html=1;rounded=0;" parent="1" edge="1">
          <mxGeometry width="50" height="50" relative="1" as="geometry">
            <mxPoint x="470" y="-40" as="sourcePoint" />
            <mxPoint x="490" y="-10" as="targetPoint" />
          </mxGeometry>
        </mxCell>
        <mxCell id="go7EdPzXV1L_zmfhicrD-38" value="" style="endArrow=none;html=1;rounded=0;" parent="1" edge="1">
          <mxGeometry width="50" height="50" relative="1" as="geometry">
            <mxPoint x="570" y="-40" as="sourcePoint" />
            <mxPoint x="530" y="50" as="targetPoint" />
          </mxGeometry>
        </mxCell>
        <mxCell id="go7EdPzXV1L_zmfhicrD-39" value="" style="endArrow=none;html=1;rounded=0;" parent="1" edge="1">
          <mxGeometry width="50" height="50" relative="1" as="geometry">
            <mxPoint x="510" y="-40" as="sourcePoint" />
            <mxPoint x="570" y="-40" as="targetPoint" />
          </mxGeometry>
        </mxCell>
        <mxCell id="go7EdPzXV1L_zmfhicrD-40" value="" style="endArrow=none;html=1;rounded=0;" parent="1" edge="1">
          <mxGeometry width="50" height="50" relative="1" as="geometry">
            <mxPoint x="490" y="-10" as="sourcePoint" />
            <mxPoint x="510" y="-40" as="targetPoint" />
          </mxGeometry>
        </mxCell>
        <mxCell id="go7EdPzXV1L_zmfhicrD-41" value="" style="endArrow=none;html=1;rounded=0;" parent="1" edge="1">
          <mxGeometry width="50" height="50" relative="1" as="geometry">
            <mxPoint x="450" y="50" as="sourcePoint" />
            <mxPoint x="530" y="50" as="targetPoint" />
          </mxGeometry>
        </mxCell>
        <mxCell id="go7EdPzXV1L_zmfhicrD-42" value="ALU" style="text;html=1;strokeColor=none;fillColor=none;align=center;verticalAlign=middle;whiteSpace=wrap;rounded=0;fontSize=16;" parent="1" vertex="1">
          <mxGeometry x="460" width="60" height="30" as="geometry" />
        </mxCell>
        <mxCell id="go7EdPzXV1L_zmfhicrD-43" value="" style="rounded=0;whiteSpace=wrap;html=1;fillColor=#FF3333;fillStyle=solid;" parent="1" vertex="1">
          <mxGeometry x="410" y="-130" width="160" height="30" as="geometry" />
        </mxCell>
        <mxCell id="go7EdPzXV1L_zmfhicrD-44" value="" style="rounded=0;whiteSpace=wrap;html=1;fillStyle=solid;fillColor=#33FFFF;" parent="1" vertex="1">
          <mxGeometry x="410" y="250" width="160" height="30" as="geometry" />
        </mxCell>
        <mxCell id="go7EdPzXV1L_zmfhicrD-45" value="" style="endArrow=classic;html=1;rounded=0;" parent="1" edge="1">
          <mxGeometry width="50" height="50" relative="1" as="geometry">
            <mxPoint x="440" y="-100" as="sourcePoint" />
            <mxPoint x="440" y="-40" as="targetPoint" />
          </mxGeometry>
        </mxCell>
        <mxCell id="go7EdPzXV1L_zmfhicrD-47" value="" style="endArrow=classic;html=1;rounded=0;entryX=0;entryY=0.5;entryDx=0;entryDy=0;" parent="1" target="go7EdPzXV1L_zmfhicrD-43" edge="1">
          <mxGeometry width="50" height="50" relative="1" as="geometry">
            <mxPoint x="490" y="50" as="sourcePoint" />
            <mxPoint x="370" y="-140" as="targetPoint" />
            <Array as="points">
              <mxPoint x="490" y="90" />
              <mxPoint x="370" y="90" />
              <mxPoint x="370" y="-115" />
            </Array>
          </mxGeometry>
        </mxCell>
        <mxCell id="go7EdPzXV1L_zmfhicrD-50" value="" style="rounded=1;whiteSpace=wrap;html=1;fillColor=none;dashed=1;dashPattern=1 2;strokeWidth=2;fontSize=16;" parent="1" vertex="1">
          <mxGeometry x="340" y="-220" width="280" height="360" as="geometry" />
        </mxCell>
        <mxCell id="go7EdPzXV1L_zmfhicrD-51" value="" style="rounded=1;whiteSpace=wrap;html=1;fillColor=none;dashed=1;dashPattern=1 2;strokeWidth=2;" parent="1" vertex="1">
          <mxGeometry x="340" y="175" width="280" height="300" as="geometry" />
        </mxCell>
        <mxCell id="go7EdPzXV1L_zmfhicrD-52" value="" style="rounded=0;whiteSpace=wrap;html=1;" parent="1" vertex="1">
          <mxGeometry x="410" y="220" width="160" height="30" as="geometry" />
        </mxCell>
        <mxCell id="go7EdPzXV1L_zmfhicrD-54" value="" style="rounded=0;whiteSpace=wrap;html=1;" parent="1" vertex="1">
          <mxGeometry x="410" y="280" width="160" height="30" as="geometry" />
        </mxCell>
        <mxCell id="go7EdPzXV1L_zmfhicrD-55" value="" style="rounded=0;whiteSpace=wrap;html=1;" parent="1" vertex="1">
          <mxGeometry x="410" y="310" width="160" height="30" as="geometry" />
        </mxCell>
        <mxCell id="go7EdPzXV1L_zmfhicrD-56" value="" style="rounded=0;whiteSpace=wrap;html=1;" parent="1" vertex="1">
          <mxGeometry x="410" y="410" width="160" height="30" as="geometry" />
        </mxCell>
        <mxCell id="go7EdPzXV1L_zmfhicrD-57" value="" style="endArrow=none;dashed=1;html=1;rounded=0;entryX=0;entryY=1;entryDx=0;entryDy=0;exitX=0;exitY=0;exitDx=0;exitDy=0;" parent="1" source="go7EdPzXV1L_zmfhicrD-56" target="go7EdPzXV1L_zmfhicrD-55" edge="1">
          <mxGeometry width="50" height="50" relative="1" as="geometry">
            <mxPoint x="500" y="390" as="sourcePoint" />
            <mxPoint x="410" y="364.2857142857142" as="targetPoint" />
          </mxGeometry>
        </mxCell>
        <mxCell id="go7EdPzXV1L_zmfhicrD-58" value="" style="endArrow=none;dashed=1;html=1;rounded=0;entryX=1;entryY=1;entryDx=0;entryDy=0;exitX=1;exitY=0;exitDx=0;exitDy=0;" parent="1" source="go7EdPzXV1L_zmfhicrD-56" target="go7EdPzXV1L_zmfhicrD-55" edge="1">
          <mxGeometry width="50" height="50" relative="1" as="geometry">
            <mxPoint x="710" y="390" as="sourcePoint" />
            <mxPoint x="760" y="340" as="targetPoint" />
          </mxGeometry>
        </mxCell>
        <mxCell id="go7EdPzXV1L_zmfhicrD-61" value="Accumulator" style="text;html=1;strokeColor=none;fillColor=none;align=center;verticalAlign=middle;whiteSpace=wrap;rounded=0;fontSize=22;" parent="1" vertex="1">
          <mxGeometry x="422.5" y="-280" width="115" height="30" as="geometry" />
        </mxCell>
        <mxCell id="go7EdPzXV1L_zmfhicrD-46" value="" style="endArrow=classic;html=1;rounded=0;exitX=0.699;exitY=1.018;exitDx=0;exitDy=0;exitPerimeter=0;" parent="1" source="go7EdPzXV1L_zmfhicrD-52" edge="1">
          <mxGeometry width="50" height="50" relative="1" as="geometry">
            <mxPoint x="510" y="250" as="sourcePoint" />
            <mxPoint x="536" y="-40" as="targetPoint" />
            <Array as="points">
              <mxPoint x="524" y="70" />
              <mxPoint x="590" y="70" />
              <mxPoint x="590" y="-70" />
              <mxPoint x="536" y="-70" />
            </Array>
          </mxGeometry>
        </mxCell>
        <mxCell id="go7EdPzXV1L_zmfhicrD-65" value="" style="endArrow=none;html=1;rounded=0;" parent="1" edge="1">
          <mxGeometry width="50" height="50" relative="1" as="geometry">
            <mxPoint x="780" y="50" as="sourcePoint" />
            <mxPoint x="740" y="-40" as="targetPoint" />
          </mxGeometry>
        </mxCell>
        <mxCell id="go7EdPzXV1L_zmfhicrD-66" value="" style="endArrow=none;html=1;rounded=0;" parent="1" edge="1">
          <mxGeometry width="50" height="50" relative="1" as="geometry">
            <mxPoint x="740" y="-40" as="sourcePoint" />
            <mxPoint x="800" y="-40" as="targetPoint" />
          </mxGeometry>
        </mxCell>
        <mxCell id="go7EdPzXV1L_zmfhicrD-67" value="" style="endArrow=none;html=1;rounded=0;" parent="1" edge="1">
          <mxGeometry width="50" height="50" relative="1" as="geometry">
            <mxPoint x="800" y="-40" as="sourcePoint" />
            <mxPoint x="820" y="-10" as="targetPoint" />
          </mxGeometry>
        </mxCell>
        <mxCell id="go7EdPzXV1L_zmfhicrD-68" value="" style="endArrow=none;html=1;rounded=0;" parent="1" edge="1">
          <mxGeometry width="50" height="50" relative="1" as="geometry">
            <mxPoint x="900" y="-40" as="sourcePoint" />
            <mxPoint x="860" y="50" as="targetPoint" />
          </mxGeometry>
        </mxCell>
        <mxCell id="go7EdPzXV1L_zmfhicrD-69" value="" style="endArrow=none;html=1;rounded=0;" parent="1" edge="1">
          <mxGeometry width="50" height="50" relative="1" as="geometry">
            <mxPoint x="840" y="-40" as="sourcePoint" />
            <mxPoint x="900" y="-40" as="targetPoint" />
          </mxGeometry>
        </mxCell>
        <mxCell id="go7EdPzXV1L_zmfhicrD-70" value="" style="endArrow=none;html=1;rounded=0;" parent="1" edge="1">
          <mxGeometry width="50" height="50" relative="1" as="geometry">
            <mxPoint x="820" y="-10" as="sourcePoint" />
            <mxPoint x="840" y="-40" as="targetPoint" />
          </mxGeometry>
        </mxCell>
        <mxCell id="go7EdPzXV1L_zmfhicrD-71" value="" style="endArrow=none;html=1;rounded=0;" parent="1" edge="1">
          <mxGeometry width="50" height="50" relative="1" as="geometry">
            <mxPoint x="780" y="50" as="sourcePoint" />
            <mxPoint x="860" y="50" as="targetPoint" />
          </mxGeometry>
        </mxCell>
        <mxCell id="go7EdPzXV1L_zmfhicrD-72" value="ALU" style="text;html=1;strokeColor=none;fillColor=none;align=center;verticalAlign=middle;whiteSpace=wrap;rounded=0;fontSize=16;" parent="1" vertex="1">
          <mxGeometry x="790" width="60" height="30" as="geometry" />
        </mxCell>
        <mxCell id="go7EdPzXV1L_zmfhicrD-73" value="" style="rounded=0;whiteSpace=wrap;html=1;fillColor=#FF3333;fillStyle=solid;" parent="1" vertex="1">
          <mxGeometry x="740" y="-130" width="160" height="30" as="geometry" />
        </mxCell>
        <mxCell id="go7EdPzXV1L_zmfhicrD-74" value="" style="rounded=0;whiteSpace=wrap;html=1;fillStyle=solid;fillColor=#33FFFF;" parent="1" vertex="1">
          <mxGeometry x="740" y="-160" width="160" height="30" as="geometry" />
        </mxCell>
        <mxCell id="go7EdPzXV1L_zmfhicrD-75" value="" style="endArrow=classic;html=1;rounded=0;" parent="1" edge="1">
          <mxGeometry width="50" height="50" relative="1" as="geometry">
            <mxPoint x="770" y="-100" as="sourcePoint" />
            <mxPoint x="770" y="-40" as="targetPoint" />
          </mxGeometry>
        </mxCell>
        <mxCell id="go7EdPzXV1L_zmfhicrD-76" value="" style="endArrow=classic;html=1;rounded=0;entryX=0;entryY=0.5;entryDx=0;entryDy=0;" parent="1" target="go7EdPzXV1L_zmfhicrD-88" edge="1">
          <mxGeometry width="50" height="50" relative="1" as="geometry">
            <mxPoint x="820" y="50" as="sourcePoint" />
            <mxPoint x="700" y="-140" as="targetPoint" />
            <Array as="points">
              <mxPoint x="820" y="90" />
              <mxPoint x="700" y="90" />
              <mxPoint x="700" y="-175" />
            </Array>
          </mxGeometry>
        </mxCell>
        <mxCell id="go7EdPzXV1L_zmfhicrD-77" value="" style="rounded=1;whiteSpace=wrap;html=1;fillColor=none;dashed=1;dashPattern=1 2;strokeWidth=2;" parent="1" vertex="1">
          <mxGeometry x="670" y="-220" width="280" height="360" as="geometry" />
        </mxCell>
        <mxCell id="go7EdPzXV1L_zmfhicrD-78" value="" style="rounded=1;whiteSpace=wrap;html=1;fillColor=none;dashed=1;dashPattern=1 2;strokeWidth=2;" parent="1" vertex="1">
          <mxGeometry x="670" y="175" width="280" height="300" as="geometry" />
        </mxCell>
        <mxCell id="go7EdPzXV1L_zmfhicrD-79" value="" style="rounded=0;whiteSpace=wrap;html=1;" parent="1" vertex="1">
          <mxGeometry x="740" y="220" width="160" height="30" as="geometry" />
        </mxCell>
        <mxCell id="go7EdPzXV1L_zmfhicrD-80" value="" style="rounded=0;whiteSpace=wrap;html=1;" parent="1" vertex="1">
          <mxGeometry x="740" y="280" width="160" height="30" as="geometry" />
        </mxCell>
        <mxCell id="go7EdPzXV1L_zmfhicrD-81" value="" style="rounded=0;whiteSpace=wrap;html=1;" parent="1" vertex="1">
          <mxGeometry x="740" y="310" width="160" height="30" as="geometry" />
        </mxCell>
        <mxCell id="go7EdPzXV1L_zmfhicrD-82" value="" style="rounded=0;whiteSpace=wrap;html=1;" parent="1" vertex="1">
          <mxGeometry x="740" y="410" width="160" height="30" as="geometry" />
        </mxCell>
        <mxCell id="go7EdPzXV1L_zmfhicrD-83" value="" style="endArrow=none;dashed=1;html=1;rounded=0;entryX=0;entryY=1;entryDx=0;entryDy=0;exitX=0;exitY=0;exitDx=0;exitDy=0;" parent="1" source="go7EdPzXV1L_zmfhicrD-82" target="go7EdPzXV1L_zmfhicrD-81" edge="1">
          <mxGeometry width="50" height="50" relative="1" as="geometry">
            <mxPoint x="830" y="390" as="sourcePoint" />
            <mxPoint x="740" y="364.2857142857142" as="targetPoint" />
          </mxGeometry>
        </mxCell>
        <mxCell id="go7EdPzXV1L_zmfhicrD-84" value="" style="endArrow=none;dashed=1;html=1;rounded=0;entryX=1;entryY=1;entryDx=0;entryDy=0;exitX=1;exitY=0;exitDx=0;exitDy=0;" parent="1" source="go7EdPzXV1L_zmfhicrD-82" target="go7EdPzXV1L_zmfhicrD-81" edge="1">
          <mxGeometry width="50" height="50" relative="1" as="geometry">
            <mxPoint x="1040" y="390" as="sourcePoint" />
            <mxPoint x="1090" y="340" as="targetPoint" />
          </mxGeometry>
        </mxCell>
        <mxCell id="go7EdPzXV1L_zmfhicrD-85" value="GPR" style="text;html=1;strokeColor=none;fillColor=none;align=center;verticalAlign=middle;whiteSpace=wrap;rounded=0;fontSize=22;" parent="1" vertex="1">
          <mxGeometry x="752.5" y="-280" width="115" height="30" as="geometry" />
        </mxCell>
        <mxCell id="go7EdPzXV1L_zmfhicrD-87" value="" style="rounded=0;whiteSpace=wrap;html=1;" parent="1" vertex="1">
          <mxGeometry x="740" y="250" width="160" height="30" as="geometry" />
        </mxCell>
        <mxCell id="go7EdPzXV1L_zmfhicrD-88" value="" style="rounded=0;whiteSpace=wrap;html=1;fillStyle=solid;fillColor=#33FF33;" parent="1" vertex="1">
          <mxGeometry x="740" y="-190" width="160" height="30" as="geometry" />
        </mxCell>
        <mxCell id="go7EdPzXV1L_zmfhicrD-89" value="" style="endArrow=classic;html=1;rounded=0;exitX=0.805;exitY=0.966;exitDx=0;exitDy=0;exitPerimeter=0;" parent="1" source="go7EdPzXV1L_zmfhicrD-74" edge="1">
          <mxGeometry width="50" height="50" relative="1" as="geometry">
            <mxPoint x="920" y="-60" as="sourcePoint" />
            <mxPoint x="870" y="-40" as="targetPoint" />
          </mxGeometry>
        </mxCell>
        <mxCell id="go7EdPzXV1L_zmfhicrD-90" value="" style="endArrow=none;html=1;rounded=0;" parent="1" edge="1">
          <mxGeometry width="50" height="50" relative="1" as="geometry">
            <mxPoint x="1105" y="50" as="sourcePoint" />
            <mxPoint x="1065" y="-40" as="targetPoint" />
          </mxGeometry>
        </mxCell>
        <mxCell id="go7EdPzXV1L_zmfhicrD-91" value="" style="endArrow=none;html=1;rounded=0;" parent="1" edge="1">
          <mxGeometry width="50" height="50" relative="1" as="geometry">
            <mxPoint x="1065" y="-40" as="sourcePoint" />
            <mxPoint x="1125" y="-40" as="targetPoint" />
          </mxGeometry>
        </mxCell>
        <mxCell id="go7EdPzXV1L_zmfhicrD-92" value="" style="endArrow=none;html=1;rounded=0;" parent="1" edge="1">
          <mxGeometry width="50" height="50" relative="1" as="geometry">
            <mxPoint x="1125" y="-40" as="sourcePoint" />
            <mxPoint x="1145" y="-10" as="targetPoint" />
          </mxGeometry>
        </mxCell>
        <mxCell id="go7EdPzXV1L_zmfhicrD-93" value="" style="endArrow=none;html=1;rounded=0;" parent="1" edge="1">
          <mxGeometry width="50" height="50" relative="1" as="geometry">
            <mxPoint x="1225" y="-40" as="sourcePoint" />
            <mxPoint x="1185" y="50" as="targetPoint" />
          </mxGeometry>
        </mxCell>
        <mxCell id="go7EdPzXV1L_zmfhicrD-94" value="" style="endArrow=none;html=1;rounded=0;" parent="1" edge="1">
          <mxGeometry width="50" height="50" relative="1" as="geometry">
            <mxPoint x="1165" y="-40" as="sourcePoint" />
            <mxPoint x="1225" y="-40" as="targetPoint" />
          </mxGeometry>
        </mxCell>
        <mxCell id="go7EdPzXV1L_zmfhicrD-95" value="" style="endArrow=none;html=1;rounded=0;" parent="1" edge="1">
          <mxGeometry width="50" height="50" relative="1" as="geometry">
            <mxPoint x="1145" y="-10" as="sourcePoint" />
            <mxPoint x="1165" y="-40" as="targetPoint" />
          </mxGeometry>
        </mxCell>
        <mxCell id="go7EdPzXV1L_zmfhicrD-96" value="" style="endArrow=none;html=1;rounded=0;" parent="1" edge="1">
          <mxGeometry width="50" height="50" relative="1" as="geometry">
            <mxPoint x="1105" y="50" as="sourcePoint" />
            <mxPoint x="1185" y="50" as="targetPoint" />
          </mxGeometry>
        </mxCell>
        <mxCell id="go7EdPzXV1L_zmfhicrD-97" value="ALU" style="text;html=1;strokeColor=none;fillColor=none;align=center;verticalAlign=middle;whiteSpace=wrap;rounded=0;fontSize=16;" parent="1" vertex="1">
          <mxGeometry x="1115" width="60" height="30" as="geometry" />
        </mxCell>
        <mxCell id="go7EdPzXV1L_zmfhicrD-98" value="" style="rounded=0;whiteSpace=wrap;html=1;fillColor=#FF3333;fillStyle=solid;" parent="1" vertex="1">
          <mxGeometry x="1065" y="250" width="160" height="30" as="geometry" />
        </mxCell>
        <mxCell id="go7EdPzXV1L_zmfhicrD-99" value="" style="rounded=0;whiteSpace=wrap;html=1;fillStyle=solid;fillColor=#33FFFF;" parent="1" vertex="1">
          <mxGeometry x="1065" y="310" width="160" height="30" as="geometry" />
        </mxCell>
        <mxCell id="go7EdPzXV1L_zmfhicrD-102" value="" style="rounded=1;whiteSpace=wrap;html=1;fillColor=none;dashed=1;dashPattern=1 2;strokeWidth=2;" parent="1" vertex="1">
          <mxGeometry x="995" y="-220" width="280" height="360" as="geometry" />
        </mxCell>
        <mxCell id="go7EdPzXV1L_zmfhicrD-103" value="" style="rounded=1;whiteSpace=wrap;html=1;fillColor=none;dashed=1;dashPattern=1 2;strokeWidth=2;" parent="1" vertex="1">
          <mxGeometry x="995" y="175" width="280" height="300" as="geometry" />
        </mxCell>
        <mxCell id="go7EdPzXV1L_zmfhicrD-104" value="" style="rounded=0;whiteSpace=wrap;html=1;" parent="1" vertex="1">
          <mxGeometry x="1065" y="220" width="160" height="30" as="geometry" />
        </mxCell>
        <mxCell id="go7EdPzXV1L_zmfhicrD-107" value="" style="rounded=0;whiteSpace=wrap;html=1;" parent="1" vertex="1">
          <mxGeometry x="1065" y="410" width="160" height="30" as="geometry" />
        </mxCell>
        <mxCell id="go7EdPzXV1L_zmfhicrD-108" value="" style="endArrow=none;dashed=1;html=1;rounded=0;entryX=0;entryY=1;entryDx=0;entryDy=0;exitX=0;exitY=0;exitDx=0;exitDy=0;" parent="1" source="go7EdPzXV1L_zmfhicrD-107" edge="1">
          <mxGeometry width="50" height="50" relative="1" as="geometry">
            <mxPoint x="1155" y="390" as="sourcePoint" />
            <mxPoint x="1065" y="340" as="targetPoint" />
          </mxGeometry>
        </mxCell>
        <mxCell id="go7EdPzXV1L_zmfhicrD-109" value="" style="endArrow=none;dashed=1;html=1;rounded=0;entryX=1;entryY=1;entryDx=0;entryDy=0;exitX=1;exitY=0;exitDx=0;exitDy=0;" parent="1" source="go7EdPzXV1L_zmfhicrD-107" edge="1">
          <mxGeometry width="50" height="50" relative="1" as="geometry">
            <mxPoint x="1365" y="390" as="sourcePoint" />
            <mxPoint x="1225" y="340" as="targetPoint" />
          </mxGeometry>
        </mxCell>
        <mxCell id="go7EdPzXV1L_zmfhicrD-110" value="Memory - memory" style="text;html=1;strokeColor=none;fillColor=none;align=center;verticalAlign=middle;whiteSpace=wrap;rounded=0;fontSize=22;" parent="1" vertex="1">
          <mxGeometry x="1040" y="-280" width="190" height="30" as="geometry" />
        </mxCell>
        <mxCell id="go7EdPzXV1L_zmfhicrD-112" value="" style="rounded=0;whiteSpace=wrap;html=1;fillStyle=solid;fillColor=#33FF33;" parent="1" vertex="1">
          <mxGeometry x="1065" y="280" width="160" height="30" as="geometry" />
        </mxCell>
        <mxCell id="go7EdPzXV1L_zmfhicrD-114" value="" style="endArrow=classic;html=1;rounded=0;entryX=0;entryY=0.5;entryDx=0;entryDy=0;" parent="1" target="go7EdPzXV1L_zmfhicrD-112" edge="1">
          <mxGeometry width="50" height="50" relative="1" as="geometry">
            <mxPoint x="1150" y="50" as="sourcePoint" />
            <mxPoint x="1050" y="300" as="targetPoint" />
            <Array as="points">
              <mxPoint x="1150" y="80" />
              <mxPoint x="1030" y="80" />
              <mxPoint x="1030" y="295" />
            </Array>
          </mxGeometry>
        </mxCell>
        <mxCell id="go7EdPzXV1L_zmfhicrD-115" value="" style="endArrow=classic;html=1;rounded=0;exitX=0.163;exitY=1.075;exitDx=0;exitDy=0;exitPerimeter=0;" parent="1" edge="1">
          <mxGeometry width="50" height="50" relative="1" as="geometry">
            <mxPoint x="1091.08" y="279.9999999999998" as="sourcePoint" />
            <mxPoint x="1100" y="-40" as="targetPoint" />
            <Array as="points">
              <mxPoint x="1090" y="47.75" />
              <mxPoint x="1040" y="48" />
              <mxPoint x="1040" y="-70" />
              <mxPoint x="1100" y="-70" />
            </Array>
          </mxGeometry>
        </mxCell>
        <mxCell id="go7EdPzXV1L_zmfhicrD-116" value="" style="endArrow=classic;html=1;rounded=0;exitX=0.802;exitY=1.06;exitDx=0;exitDy=0;exitPerimeter=0;" parent="1" source="go7EdPzXV1L_zmfhicrD-112" edge="1">
          <mxGeometry width="50" height="50" relative="1" as="geometry">
            <mxPoint x="1000" y="110" as="sourcePoint" />
            <mxPoint x="1193" y="-40" as="targetPoint" />
            <Array as="points">
              <mxPoint x="1190" y="60" />
              <mxPoint x="1250" y="60" />
              <mxPoint x="1250" y="-70" />
              <mxPoint x="1193" y="-70" />
            </Array>
          </mxGeometry>
        </mxCell>
      </root>
    </mxGraphModel>
  </diagram>
</mxfile>
